<svg xmlns="http://www.w3.org/2000/svg" xmlns:xlink="http://www.w3.org/1999/xlink" fill="currentColor" viewBox="0 0 24 24" aria-hidden="true" data-v-0964115e="">
  <path fill="url(#pattern0)"></path><path fill="#9BA5B8" d="M20.75 21A1.75 1.75 0 0119 22.75H5A1.75 1.75 0 013.25 21V3c0-.966.784-1.75 1.75-1.75h10.5a.75.75 0 01.558.248l4.5 5a.66.66 0 01.079.106c.013.02.024.041.035.062l.009.02c.03.066.052.137.062.212l.007.096V21zm-6.5-18.25H5a.25.25 0 00-.25.25v18c0 .138.112.25.25.25h14a.25.25 0 00.25-.25V7.75H15a.75.75 0 01-.743-.648L14.25 7V2.75zm4.066 3.5L15.75 3.399V6.25h2.566z"></path><defs><pattern id="pattern0" width="1" height="1" patternContentUnits="objectBoundingBox"><use transform="scale(.01)" xlink:href="#image0_3583_7006"></use></pattern></defs>
</svg>