<svg xmlns="http://www.w3.org/2000/svg" fill="currentColor" viewBox="0 0 24 24" aria-hidden="true" data-v-0964115e="">
  <path fill="currentColor" d="M19.452 2.25H4.548c-1.119 0-1.704 1.329-.98 2.172l5.403 6.31c.235.274.365.628.365.997v6.698c0 .327.122.644.341.886l2.735 3.011c.804.888 2.252.3 2.252-.887v-9.708c0-.369.13-.724.365-.998l5.403-6.31c.724-.842.14-2.171-.98-2.171zm-.422 1.5l-5.14 6.005-.134.169a3.04 3.04 0 00-.592 1.805v9.192l-2.329-2.563v-6.629l-.007-.217a3.021 3.021 0 00-.719-1.756L4.969 3.75H19.03z"></path>
</svg>