<svg width="48" height="48" viewBox="0 0 48 48" fill="none" xmlns="http://www.w3.org/2000/svg">
<g id="&#229;&#155;&#190;&#230;&#160;&#135;">
<rect width="48" height="48" rx="24" fill="url(#paint0_linear_8499_8421)"/>
<path id="Border" fill-rule="evenodd" clip-rule="evenodd" d="M24 45C35.598 45 45 35.598 45 24C45 12.402 35.598 3 24 3C12.402 3 3 12.402 3 24C3 35.598 12.402 45 24 45ZM24 48C37.2548 48 48 37.2548 48 24C48 10.7452 37.2548 0 24 0C10.7452 0 0 10.7452 0 24C0 37.2548 10.7452 48 24 48Z" fill="url(#paint1_linear_8499_8421)" fill-opacity="0.28"/>
<g id="Shape" filter="url(#filter0_d_8499_8421)">
<path fill-rule="evenodd" clip-rule="evenodd" d="M26.5 14.5C26.5 13.125 25.375 12 24 12C22.625 12 21.5 13.125 21.5 14.5C21.5 15.875 22.625 17 24 17C25.375 17 26.5 15.875 26.5 14.5ZM24.0002 20C22.8956 20 22.0002 20.8955 22.0002 22V34C22.0002 35.1046 22.8956 36 24.0002 36C25.1048 36 26.0002 35.1046 26.0002 34V22C26.0002 20.8955 25.1048 20 24.0002 20Z" fill="url(#paint2_linear_8499_8421)"/>
</g>
</g>
<defs>
<filter id="filter0_d_8499_8421" x="15" y="7.66668" width="18" height="37" filterUnits="userSpaceOnUse" color-interpolation-filters="sRGB">
<feFlood flood-opacity="0" result="BackgroundImageFix"/>
<feColorMatrix in="SourceAlpha" type="matrix" values="0 0 0 0 0 0 0 0 0 0 0 0 0 0 0 0 0 0 127 0" result="hardAlpha"/>
<feOffset dy="2.16666"/>
<feGaussianBlur stdDeviation="3.24999"/>
<feColorMatrix type="matrix" values="0 0 0 0 0 0 0 0 0 0.566667 0 0 0 0 0.341408 0 0 0 0.5 0"/>
<feBlend mode="normal" in2="BackgroundImageFix" result="effect1_dropShadow_8499_8421"/>
<feBlend mode="normal" in="SourceGraphic" in2="effect1_dropShadow_8499_8421" result="shape"/>
</filter>
<linearGradient id="paint0_linear_8499_8421" x1="-2.29105e-07" y1="48" x2="48" y2="-2.29105e-07" gradientUnits="userSpaceOnUse">
<stop stop-color="#4099FF"/>
<stop offset="1" stop-color="#33BBFF"/>
</linearGradient>
<linearGradient id="paint1_linear_8499_8421" x1="10" y1="5" x2="38.5" y2="44" gradientUnits="userSpaceOnUse">
<stop stop-color="white"/>
<stop offset="1" stop-color="white" stop-opacity="0.2"/>
</linearGradient>
<linearGradient id="paint2_linear_8499_8421" x1="22.3" y1="13.8823" x2="34.9648" y2="26.9137" gradientUnits="userSpaceOnUse">
<stop stop-color="white" stop-opacity="0.8"/>
<stop offset="1" stop-color="white"/>
</linearGradient>
</defs>
</svg>
