<svg width="48" height="48" viewBox="0 0 48 48" fill="none" xmlns="http://www.w3.org/2000/svg">
<g id="&#229;&#155;&#190;&#230;&#160;&#135;">
<rect width="48" height="48" rx="24" fill="url(#paint0_linear_8499_8464)"/>
<path id="Border" fill-rule="evenodd" clip-rule="evenodd" d="M24 45C35.598 45 45 35.598 45 24C45 12.402 35.598 3 24 3C12.402 3 3 12.402 3 24C3 35.598 12.402 45 24 45ZM24 48C37.2548 48 48 37.2548 48 24C48 10.7452 37.2548 0 24 0C10.7452 0 0 10.7452 0 24C0 37.2548 10.7452 48 24 48Z" fill="url(#paint1_linear_8499_8464)" fill-opacity="0.28"/>
<g id="Shape" filter="url(#filter0_d_8499_8464)">
<path d="M14.1005 14.1005C13.2218 14.9792 13.2218 16.4038 14.1005 17.2825L20.818 24L14.1005 30.7175C13.2218 31.5962 13.2218 33.0208 14.1005 33.8995C14.9792 34.7782 16.4038 34.7782 17.2825 33.8995L24 27.182L30.7175 33.8995C31.5962 34.7781 33.0208 34.7781 33.8995 33.8995C34.7782 33.0208 34.7782 31.5962 33.8995 30.7175L27.182 24L33.8995 17.2825C34.7781 16.4038 34.7781 14.9792 33.8995 14.1005C33.0208 13.2218 31.5962 13.2218 30.7175 14.1005L24 20.818L17.2825 14.1005C16.4038 13.2218 14.9792 13.2218 14.1005 14.1005Z" fill="url(#paint2_linear_8499_8464)"/>
</g>
</g>
<defs>
<filter id="filter0_d_8499_8464" x="7.44147" y="11.4415" width="33.1171" height="33.1171" filterUnits="userSpaceOnUse" color-interpolation-filters="sRGB">
<feFlood flood-opacity="0" result="BackgroundImageFix"/>
<feColorMatrix in="SourceAlpha" type="matrix" values="0 0 0 0 0 0 0 0 0 0 0 0 0 0 0 0 0 0 127 0" result="hardAlpha"/>
<feOffset dy="4"/>
<feGaussianBlur stdDeviation="3"/>
<feColorMatrix type="matrix" values="0 0 0 0 0.566667 0 0 0 0 0.102 0 0 0 0 0 0 0 0 0.3 0"/>
<feBlend mode="normal" in2="BackgroundImageFix" result="effect1_dropShadow_8499_8464"/>
<feBlend mode="normal" in="SourceGraphic" in2="effect1_dropShadow_8499_8464" result="shape"/>
</filter>
<linearGradient id="paint0_linear_8499_8464" x1="0" y1="48" x2="48" y2="0" gradientUnits="userSpaceOnUse">
<stop stop-color="#EB4754"/>
<stop offset="1" stop-color="#F57A62"/>
</linearGradient>
<linearGradient id="paint1_linear_8499_8464" x1="10" y1="5" x2="38.5" y2="44" gradientUnits="userSpaceOnUse">
<stop stop-color="white"/>
<stop offset="1" stop-color="white" stop-opacity="0.2"/>
</linearGradient>
<linearGradient id="paint2_linear_8499_8464" x1="22" y1="34.5001" x2="38.6304" y2="27.0227" gradientUnits="userSpaceOnUse">
<stop stop-color="white" stop-opacity="0.8"/>
<stop offset="1" stop-color="white"/>
</linearGradient>
</defs>
</svg>
