<svg width="48" height="48" viewBox="0 0 48 48" fill="none" xmlns="http://www.w3.org/2000/svg">
<g id="&#229;&#155;&#190;&#230;&#160;&#135;">
<rect width="48" height="48" rx="24" fill="url(#paint0_linear_8499_8494)"/>
<path id="Border" fill-rule="evenodd" clip-rule="evenodd" d="M24 45C35.598 45 45 35.598 45 24C45 12.402 35.598 3 24 3C12.402 3 3 12.402 3 24C3 35.598 12.402 45 24 45ZM24 48C37.2548 48 48 37.2548 48 24C48 10.7452 37.2548 0 24 0C10.7452 0 0 10.7452 0 24C0 37.2548 10.7452 48 24 48Z" fill="url(#paint1_linear_8499_8494)" fill-opacity="0.28"/>
<g id="Shape" filter="url(#filter0_d_8499_8494)">
<path d="M33.2823 14.1538C34.1178 13.2972 35.4896 13.2801 36.3462 14.1156C37.1369 14.8869 37.2123 16.115 36.562 16.9732L36.3843 17.1795L21.591 32.3462C20.7741 33.1837 19.456 33.2124 18.604 32.4562L18.4161 32.2677L11.5428 24.4867C10.7506 23.5899 10.8354 22.2206 11.7323 21.4284C12.5601 20.6972 13.7905 20.7132 14.598 21.4254L14.7905 21.6179L20.1173 27.6483L33.2823 14.1538Z" fill="url(#paint2_linear_8499_8494)"/>
</g>
</g>
<defs>
<filter id="filter0_d_8499_8494" x="4.50001" y="9.16668" width="39" height="32.4999" filterUnits="userSpaceOnUse" color-interpolation-filters="sRGB">
<feFlood flood-opacity="0" result="BackgroundImageFix"/>
<feColorMatrix in="SourceAlpha" type="matrix" values="0 0 0 0 0 0 0 0 0 0 0 0 0 0 0 0 0 0 127 0" result="hardAlpha"/>
<feOffset dy="2.16666"/>
<feGaussianBlur stdDeviation="3.24999"/>
<feColorMatrix type="matrix" values="0 0 0 0 0 0 0 0 0 0.566667 0 0 0 0 0.341408 0 0 0 0.5 0"/>
<feBlend mode="normal" in2="BackgroundImageFix" result="effect1_dropShadow_8499_8494"/>
<feBlend mode="normal" in="SourceGraphic" in2="effect1_dropShadow_8499_8494" result="shape"/>
</filter>
<linearGradient id="paint0_linear_8499_8494" x1="0" y1="48" x2="48" y2="0" gradientUnits="userSpaceOnUse">
<stop stop-color="#22BF81"/>
<stop offset="1" stop-color="#58DC84"/>
</linearGradient>
<linearGradient id="paint1_linear_8499_8494" x1="10" y1="5" x2="38.5" y2="44" gradientUnits="userSpaceOnUse">
<stop stop-color="white"/>
<stop offset="1" stop-color="white" stop-opacity="0.2"/>
</linearGradient>
<linearGradient id="paint2_linear_8499_8494" x1="34.5" y1="16.5" x2="12.5" y2="24.5" gradientUnits="userSpaceOnUse">
<stop stop-color="white"/>
<stop offset="1" stop-color="white" stop-opacity="0.8"/>
</linearGradient>
</defs>
</svg>
