<svg width="28" height="28" viewBox="0 0 28 28" fill="none" xmlns="http://www.w3.org/2000/svg">
<g id="Logo">
<path id="Path" d="M19.9147 26.7152C21.098 26.1717 22.1826 25.4552 23.1686 24.5905C23.1933 24.5658 23.2179 24.5163 23.1933 24.4916C23.07 24.2446 22.9468 24.0222 22.7989 23.7999L21.4677 21.9963C21.4184 21.9221 21.3198 21.9716 21.3198 22.0457C21.3198 22.0704 21.3198 22.0951 21.3198 22.0951C21.3198 23.7999 20.7775 25.4058 19.7915 26.6411C19.7668 26.6905 19.7915 26.7152 19.8161 26.7152C19.8408 26.74 19.8901 26.74 19.9147 26.7152Z" fill="url(#paint0_linear_8499_7796)"/>
<path id="Path_2" d="M19.0273 18.735L18.6575 18.2161L18.2878 18.7103L18.2631 18.735C17.5729 19.7232 17.2031 20.8845 17.2031 22.0951C17.2031 23.5775 17.7454 24.9364 18.6575 25.9493C19.545 24.9117 20.1119 23.5528 20.1119 22.0951C20.1119 20.8845 19.7668 19.7479 19.0766 18.7597L19.0273 18.735Z" fill="#FBA91D"/>
<path id="Path_3" d="M20.4323 13.1266C20.4323 12.1383 19.6681 11.2983 18.6574 11.2488H18.6328C17.6467 11.2983 16.8579 12.1136 16.8579 13.1266C16.8579 13.4972 16.9812 13.8678 17.1784 14.1889L18.5342 16.0172C18.5835 16.0914 18.6821 16.0914 18.7314 16.0172L20.0872 14.2137C20.309 13.8925 20.4323 13.5219 20.4323 13.1266Z" fill="url(#paint1_linear_8499_7796)"/>
<path id="Path_4" d="M15.9459 7.66632C16.1924 7.29572 16.3403 6.85099 16.3403 6.40627C16.3403 5.19564 15.4036 4.23208 14.2203 4.15796H14.1957C13.0124 4.23208 12.0757 5.19564 12.0757 6.40627C12.0757 6.85099 12.1989 7.29572 12.4701 7.66632V7.69102L14.0971 9.86522C14.1464 9.93934 14.2696 9.93934 14.3436 9.86522L15.9459 7.66632Z" fill="url(#paint2_linear_8499_7796)"/>
<path id="Path_5" d="M9.3637 18.7597C8.67347 19.7479 8.30371 20.9092 8.30371 22.1198C8.30371 24.6893 9.93067 26.8635 12.2232 27.6788C12.3465 27.7282 12.4944 27.6047 12.4697 27.4812C12.4451 27.2094 12.4204 26.9376 12.4204 26.6411C12.4204 25.6776 12.6176 24.7634 13.0367 23.9234C13.0367 23.9234 13.0367 23.9234 13.0367 23.8987L13.5297 23.0587C13.5297 23.0587 13.5297 23.0587 13.5297 23.0339L17.8929 17.1537L14.3432 12.3853C14.2692 12.2865 14.1213 12.2865 14.0474 12.3853L9.3637 18.7597Z" fill="#FBA91D"/>
<path id="Path_6" d="M7.09602 22.1198C7.09602 21.0327 7.34253 19.9703 7.8109 19.0067C7.8109 19.0067 8.15601 18.3397 8.37787 18.0432L13.4806 11.1747C13.5053 11.15 13.5053 11.1006 13.4806 11.0759L11.6811 8.65462L11.5085 8.40755C11.0895 7.81459 10.8676 7.1228 10.8676 6.4063C10.8676 4.52859 12.3467 2.99677 14.1955 2.94736C16.0443 3.02148 17.5234 4.52859 17.5234 6.4063C17.5234 7.1228 17.3015 7.81459 16.8824 8.40755L16.7099 8.65462L14.9104 11.0759C14.8857 11.1006 14.8857 11.15 14.9104 11.1747L15.6499 12.1877C15.6992 12.2371 15.7731 12.2371 15.7978 12.163C16.1922 11.0018 17.2522 10.137 18.534 10.0629H18.682C19.9885 10.137 21.0484 11.0018 21.4429 12.1877C21.4675 12.2371 21.5415 12.2618 21.5908 12.2124L22.3549 11.1994C22.3796 11.1747 22.3796 11.1253 22.3549 11.1006L20.3582 8.40755C19.9392 7.81459 19.7173 7.1228 19.7173 6.4063C19.7173 4.75095 20.8759 3.36737 22.4289 3.02148C22.5028 2.99677 22.5028 2.92265 22.4535 2.87324C19.4215 0.550803 15.4034 -0.561001 11.1388 0.279028C5.69092 1.36613 1.40166 5.64039 0.292366 11.0759C-1.13739 18.1914 2.83141 24.6399 8.82159 27.0117C8.89554 27.0364 8.96949 26.9376 8.89554 26.8882C7.8109 25.6529 7.09602 23.9728 7.09602 22.1198Z" fill="url(#paint3_linear_8499_7796)"/>
<path id="Path_7" d="M17.6958 26.8635C17.7451 26.8388 17.7451 26.7647 17.7205 26.74C16.6605 25.5046 16.0196 23.874 16.0196 22.1198C16.0196 22.0951 16.0196 22.0704 16.0196 22.0457C16.0196 21.9469 15.8963 21.9222 15.847 21.9963L14.5405 23.7505C13.9489 24.6152 13.6284 25.6035 13.6284 26.6412C13.6284 27.0859 13.7024 27.5306 13.801 27.9259C13.801 27.9753 13.8503 28 13.8749 28C13.9735 28 14.0721 28 14.1954 28C14.2447 28 14.2693 28 14.3186 28C15.5512 28 16.7344 27.58 17.6958 26.8635Z" fill="#F8991C"/>
<path id="Path_8" d="M20.9497 6.40632C20.9497 6.85104 21.073 7.29576 21.3441 7.66637L22.9711 9.86527C23.0204 9.93939 23.1436 9.93939 23.2176 9.86527L24.8446 7.66637C25.0911 7.29576 25.239 6.85104 25.239 6.40632C25.239 5.98631 25.1157 5.56629 24.8939 5.2204C24.8939 5.2204 24.8939 5.19569 24.8692 5.19569C24.7459 5.02274 24.598 4.8745 24.4501 4.70156C24.4501 4.70156 24.4501 4.70156 24.4255 4.67685C24.0557 4.35566 23.5874 4.15801 23.0697 4.1333H23.045C21.9111 4.20742 20.9497 5.19569 20.9497 6.40632Z" fill="url(#paint4_linear_8499_7796)"/>
<path id="Path_9" d="M25.8062 8.38285L25.609 8.62992L23.8095 11.0512C23.7849 11.0759 23.7849 11.1253 23.8095 11.1747L27.6304 16.3137C27.6797 16.3878 27.803 16.3631 27.803 16.2643C27.9262 15.5231 28.0002 14.7819 28.0002 14.016C28.0002 11.6689 27.4332 9.46995 26.4225 7.54282C26.3732 7.4687 26.2746 7.4687 26.2499 7.56753C26.1513 7.86401 26.0034 8.13579 25.8062 8.38285Z" fill="url(#paint5_linear_8499_7796)"/>
<path id="Path_10" d="M23.2672 12.4595C23.1686 12.3359 22.996 12.3359 22.8974 12.4595L19.397 17.1785L23.5383 22.7869C23.5383 22.7869 23.8834 23.281 23.9574 23.4046C24.0313 23.5281 24.2039 23.5528 24.3272 23.4293C25.7076 21.9222 26.7429 20.1186 27.3592 18.1173C27.3839 18.0432 27.3592 17.9691 27.3346 17.9197L23.2672 12.4595Z" fill="url(#paint6_linear_8499_7796)"/>
</g>
<defs>
<linearGradient id="paint0_linear_8499_7796" x1="17.2153" y1="28.8504" x2="29.8089" y2="21.326" gradientUnits="userSpaceOnUse">
<stop stop-color="#ED1B23"/>
<stop offset="0.9919" stop-color="#F5841E"/>
</linearGradient>
<linearGradient id="paint1_linear_8499_7796" x1="12.4355" y1="20.3066" x2="26.3177" y2="12.0122" gradientUnits="userSpaceOnUse">
<stop stop-color="#ED1B23"/>
<stop offset="0.9919" stop-color="#F5841E"/>
</linearGradient>
<linearGradient id="paint2_linear_8499_7796" x1="8.2074" y1="13.4391" x2="22.0682" y2="5.15752" gradientUnits="userSpaceOnUse">
<stop stop-color="#ED1B23"/>
<stop offset="0.9919" stop-color="#F5841E"/>
</linearGradient>
<linearGradient id="paint3_linear_8499_7796" x1="6.86431" y1="16.2733" x2="22.9167" y2="6.68232" gradientUnits="userSpaceOnUse">
<stop stop-color="#ED1B23"/>
<stop offset="0.9919" stop-color="#F5841E"/>
</linearGradient>
<linearGradient id="paint4_linear_8499_7796" x1="13.4758" y1="17.3598" x2="27.3616" y2="9.06324" gradientUnits="userSpaceOnUse">
<stop stop-color="#ED1B23"/>
<stop offset="0.9919" stop-color="#F5841E"/>
</linearGradient>
<linearGradient id="paint5_linear_8499_7796" x1="22.065" y1="22.7579" x2="30.9487" y2="17.4501" gradientUnits="userSpaceOnUse">
<stop stop-color="#ED1B23"/>
<stop offset="0.9919" stop-color="#F5841E"/>
</linearGradient>
<linearGradient id="paint6_linear_8499_7796" x1="16.848" y1="25.7342" x2="30.1206" y2="17.8041" gradientUnits="userSpaceOnUse">
<stop stop-color="#ED1B23"/>
<stop offset="0.9919" stop-color="#F5841E"/>
</linearGradient>
</defs>
</svg>
